<svg width="145" height="19.605" viewBox="0 0 145 19.605" xmlns="http://www.w3.org/2000/svg"><g id="svgGroup" stroke-linecap="round" fill-rule="evenodd" font-size="9pt" stroke="#f84565" stroke-width="0.25mm" fill="#f84565" style="stroke:#f84565;stroke-width:0.25mm;fill:#f84565"><path d="m67.208 17.753 1.251 -2.085q0.939 0.782 2.111 1.277t2.737 0.495q1.877 0 2.972 -0.782t1.095 -2.111q0 -0.756 -0.313 -1.343t-1.213 -1.147 -2.646 -1.213q-1.877 -0.73 -2.998 -1.473t-1.603 -1.695 -0.482 -2.255 0.717 -2.359 2.111 -1.695 3.376 -0.639q1.616 0 2.907 0.326t2.516 0.926l-0.913 2.111q-0.887 -0.521 -2.072 -0.873t-2.49 -0.352q-1.721 0 -2.711 0.677t-0.99 1.747q0 0.677 0.287 1.2t1.134 1.017 2.542 1.121q2.033 0.756 3.22 1.59t1.682 1.812 0.495 2.229q0 1.695 -0.847 2.894t-2.346 1.825 -3.428 0.626q-1.903 0 -3.467 -0.508t-2.633 -1.343Zm-1.043 0.235 -1.616 1.564 -7.013 -7.221v6.961h-2.346V0h2.346v11.027l6.126 -5.552 1.356 1.486 -5.24 4.641zm-45.674 -3.441V5.735h2.346v8.499q0 1.59 0.677 2.438t1.982 0.847q1.069 0 2.072 -0.43t1.785 -1.16V5.735h2.346v10.037q0 1.121 0.482 1.473t1.056 0.352l-0.495 1.825q-2.424 0 -2.998 -1.929 -0.913 0.939 -2.111 1.525T25.053 19.605q-1.173 0 -2.216 -0.495t-1.695 -1.603 -0.652 -2.959Zm115.463 4.744h-2.346V5.735h2.268v2.268q0.73 -1.095 1.864 -1.838t2.698 -0.743q2.294 0 3.428 1.382t1.134 3.65v8.837h-2.346V10.714q0 -1.46 -0.691 -2.346t-1.916 -0.887q-1.2 0 -2.268 0.847t-1.825 1.995zM15.043 16.267l2.32 1.277 -1.121 2.059 -2.529 -1.877q-0.964 0.808 -2.268 1.343t-2.972 0.534q-1.982 0 -3.559 -0.743t-2.672 -2.033T0.574 13.817 0 10.141q0 -2.685 1.017 -4.81t2.907 -3.363 4.549 -1.238q1.982 0 3.559 0.73t2.672 2.033 1.682 2.998 0.587 3.65q0 2.033 -0.574 3.532t-1.356 2.594Zm101.176 -2.79H106.729q0.235 1.903 1.329 2.972t2.894 1.069q1.173 0 2.111 -0.248t1.799 -0.639l0.547 2.008q-0.939 0.417 -2.111 0.691t-2.633 0.274q-2.92 0 -4.627 -1.864t-1.707 -5.226q0 -2.033 0.769 -3.637t2.151 -2.529 3.206 -0.926q1.955 0 3.246 0.847t1.942 2.281 0.652 3.154q0 0.913 -0.078 1.772Zm14.182 0h-9.489q0.235 1.903 1.329 2.972t2.894 1.069q1.173 0 2.111 -0.248t1.799 -0.639l0.547 2.008q-0.939 0.417 -2.111 0.691t-2.633 0.274q-2.92 0 -4.627 -1.864t-1.707 -5.226q0 -2.033 0.769 -3.637t2.151 -2.529 3.206 -0.926q1.955 0 3.246 0.847t1.942 2.281 0.652 3.154q0 0.913 -0.078 1.772ZM52.244 6.23l-0.704 1.982q-0.73 -0.365 -1.395 -0.534t-1.473 -0.169q-1.825 0 -3.063 1.316t-1.238 3.637q0 1.408 0.521 2.555t1.447 1.825 2.177 0.677q0.99 0 1.695 -0.221t1.512 -0.639l0.73 1.982q-0.808 0.443 -1.812 0.704t-2.281 0.261q-1.929 0 -3.376 -0.9t-2.229 -2.503 -0.782 -3.689q0 -1.955 0.795 -3.572t2.281 -2.568 3.493 -0.951q1.147 0 2.021 0.208t1.682 0.6Zm40.434 0 -0.704 1.982q-0.73 -0.365 -1.395 -0.534t-1.473 -0.169q-1.825 0 -3.063 1.316t-1.238 3.637q0 1.408 0.521 2.555t1.447 1.825 2.177 0.677q0.99 0 1.695 -0.221t1.512 -0.639l0.73 1.982q-0.808 0.443 -1.812 0.704t-2.281 0.261q-1.929 0 -3.376 -0.9t-2.229 -2.503 -0.782 -3.689q0 -1.955 0.795 -3.572t2.281 -2.568 3.493 -0.951q1.147 0 2.021 0.208t1.682 0.6ZM11.862 16.554l-1.982 -1.251 1.043 -1.903 2.346 1.695q0.626 -1.017 0.9 -2.229t0.274 -2.724q0 -1.408 -0.404 -2.711t-1.173 -2.333 -1.877 -1.629 -2.516 -0.6q-1.877 0 -3.206 0.951t-2.033 2.594 -0.704 3.728q0 1.408 0.391 2.724t1.147 2.359 1.851 1.642 2.503 0.6q1.069 0 1.942 -0.261t1.499 -0.652Zm86.108 2.737h-2.346V5.735h2.268v2.946q0.339 -0.86 0.913 -1.603t1.434 -1.2 2.008 -0.456q0.391 0 0.782 0.039t0.652 0.118l-0.704 2.424q-0.495 -0.208 -1.173 -0.208 -0.964 0 -1.838 0.547t-1.434 1.695 -0.561 2.92zm-59.256 0h-2.346V5.735h2.346zm67.99 -7.717h7.43q0 -1.982 -0.99 -3.05t-2.737 -1.069q-1.512 0 -2.503 1.056t-1.2 3.063Zm14.182 0h7.43q0 -1.982 -0.99 -3.05t-2.737 -1.069q-1.512 0 -2.503 1.056t-1.2 3.063ZM37.542 3.414q-0.677 0 -1.16 -0.495t-0.482 -1.147q0 -0.756 0.443 -1.2t1.2 -0.443q0.677 0 1.16 0.482t0.482 1.16q0 0.73 -0.443 1.186t-1.2 0.456Z" vector-effect="non-scaling-stroke"/></g></svg>